<?xml version="1.0" standalone="no"?>
<!DOCTYPE svg PUBLIC "-//W3C//DTD SVG 20010904//EN"
 "http://www.w3.org/TR/2001/REC-SVG-20010904/DTD/svg10.dtd">
<svg version="1.0" xmlns="http://www.w3.org/2000/svg"
 width="341.000000pt" height="302.000000pt" viewBox="0 0 341.000000 302.000000"
 preserveAspectRatio="xMidYMid meet">

<g transform="translate(0.000000,302.000000) scale(0.100000,-0.100000)"
fill="#000000" stroke="none">
<path d="M1858 2665 c-110 -31 -341 -122 -477 -187 -125 -61 -186 -118 -250
-234 -24 -43 -60 -107 -80 -142 l-36 -64 -305 -119 c-168 -66 -306 -122 -308
-124 -8 -7 38 -186 57 -223 10 -20 29 -46 41 -57 45 -41 60 -94 130 -482 39
-213 73 -396 76 -406 3 -10 20 -24 37 -32 51 -23 1326 -310 1429 -322 44 -5
52 -3 100 35 76 58 339 307 361 342 13 21 25 76 38 178 51 398 89 540 185 683
57 86 87 166 99 262 6 45 4 57 -6 57 -56 1 -513 81 -519 90 -4 7 -27 87 -50
178 -53 209 -125 432 -154 474 -12 18 -35 40 -51 48 -17 8 -46 26 -65 40 -50
35 -138 37 -252 5z m212 -10 c24 -14 23 -14 -30 -15 -107 0 -301 -72 -429
-158 -31 -21 -95 -56 -142 -79 -93 -44 -154 -92 -199 -157 -15 -23 -84 -142
-153 -266 -68 -124 -133 -239 -143 -257 -10 -17 -16 -34 -13 -37 4 -5 571
-106 593 -106 12 0 4 31 -42 150 -78 201 -118 419 -93 507 26 95 153 209 326
294 213 104 406 118 461 34 27 -41 98 -261 153 -474 28 -106 52 -195 53 -197
4 -3 202 -37 358 -60 63 -9 121 -20 128 -24 9 -4 -68 -68 -222 -184 l-235
-178 -367 63 -367 64 -40 85 c-42 91 -101 261 -112 323 -9 45 -15 44 150 17
66 -11 127 -20 136 -20 29 0 193 423 206 533 l6 48 36 -3 c62 -5 58 -24 -75
-379 -41 -107 -74 -200 -74 -206 0 -9 189 -43 329 -60 43 -5 51 -3 51 11 0 36
-133 544 -155 594 -13 28 -20 52 -14 52 5 0 9 5 9 11 0 19 -116 1 -222 -35
-236 -80 -402 -224 -423 -366 -9 -59 7 -171 40 -285 30 -104 109 -296 133
-324 14 -16 85 -31 377 -81 198 -34 362 -64 364 -66 2 -2 1 -22 -3 -46 -6 -41
-44 -116 -86 -168 -11 -14 -29 -61 -40 -105 -37 -146 -96 -622 -79 -639 12
-13 15 0 34 189 32 324 73 522 116 561 31 28 68 107 76 160 7 56 -4 45 272
254 l214 162 -6 -43 c-11 -77 -36 -146 -72 -196 -19 -26 -44 -66 -56 -89 -23
-43 -80 -89 -209 -167 -44 -27 -78 -53 -74 -58 6 -10 61 20 163 88 36 23 66
41 68 39 2 -2 -8 -45 -21 -97 -29 -111 -50 -227 -77 -433 -13 -98 -25 -159
-37 -176 -22 -34 -282 -281 -349 -332 l-53 -40 -67 12 c-82 14 -458 97 -993
220 -274 62 -399 95 -411 108 -11 12 -38 135 -87 407 -39 214 -69 391 -68 392
2 2 47 -8 102 -21 313 -78 1283 -251 1301 -233 3 4 4 9 2 11 -2 3 -94 19 -204
36 -564 89 -1214 222 -1224 251 -2 6 -18 28 -36 48 -18 20 -39 50 -47 66 -19
37 -52 174 -45 182 3 3 97 -11 209 -30 112 -19 206 -33 210 -31 10 6 116 192
223 389 104 194 141 248 201 296 77 61 420 207 595 253 107 29 163 32 199 11z
m-45 -147 c-12 -69 -53 -191 -117 -347 -33 -80 -63 -149 -67 -153 -3 -3 -62 2
-131 13 -189 29 -170 17 -170 107 0 55 6 89 20 120 43 95 188 204 359 268 113
44 114 44 106 -8z m205 -299 c38 -150 68 -274 67 -276 -2 -1 -74 9 -161 22
-87 14 -161 25 -166 25 -4 0 16 64 47 142 30 79 70 188 89 243 19 55 37 106
39 114 3 8 8 12 10 9 3 -3 37 -128 75 -279z m-779 130 c-48 -64 -64 -117 -59
-203 1 -36 1 -66 -2 -66 -21 1 -172 28 -175 32 -8 8 92 162 127 195 25 25 131
92 145 93 2 0 -15 -23 -36 -51z m-136 -279 l80 -12 27 -107 c14 -59 45 -156
67 -216 23 -60 39 -110 36 -113 -5 -5 -524 83 -531 90 -3 4 139 265 196 361 6
11 18 16 28 13 9 -3 53 -10 97 -16z m-391 -191 c-42 -74 -78 -136 -80 -138 -4
-4 -313 45 -359 57 -21 6 22 26 242 113 147 59 269 105 271 104 2 -1 -32 -63
-74 -136z"/>
<path d="M745 1168 c3 -18 19 -138 35 -267 16 -129 31 -235 32 -236 10 -6 112
-24 116 -21 2 3 -6 124 -18 270 l-23 265 -49 11 c-27 5 -60 10 -74 10 -23 0
-24 -3 -19 -32z m98 -3 c23 -4 24 -9 41 -217 9 -117 20 -228 23 -247 l6 -34
-39 8 c-22 4 -40 8 -42 9 -3 3 -62 463 -62 484 0 8 9 11 25 7 14 -3 35 -7 48
-10z"/>
<path d="M2584 1151 l-40 -29 -13 -173 c-6 -96 -15 -195 -18 -221 -3 -27 -1
-48 4 -48 5 0 23 12 41 28 l32 27 24 215 c14 118 21 218 17 223 -4 4 -25 -6
-47 -22z m6 -218 c-19 -162 -32 -214 -48 -198 -2 2 2 86 9 186 11 159 15 185
33 203 12 12 21 15 24 8 2 -6 -6 -96 -18 -199z"/>
<path d="M960 1148 c0 -13 10 -135 22 -271 25 -281 16 -260 115 -274 l43 -6 0
39 c-1 82 -20 497 -23 500 -2 2 -30 9 -63 15 -32 5 -67 12 -76 15 -14 4 -18
-1 -18 -18z m88 -19 l50 -10 6 -157 c3 -86 8 -199 11 -250 4 -85 3 -93 -13
-88 -9 2 -31 7 -47 11 l-31 6 -17 212 c-10 117 -21 229 -24 250 -6 42 -6 42
65 26z"/>
<path d="M1184 1099 c3 -13 8 -135 12 -271 l6 -248 37 -9 c20 -6 54 -13 75
-17 l39 -7 -6 109 c-4 60 -10 184 -13 276 -5 122 -10 168 -20 172 -7 3 -40 8
-74 12 -61 7 -61 7 -56 -17z m107 -15 c14 -4 17 -34 23 -222 4 -119 10 -232
13 -251 l6 -34 -49 7 c-27 4 -52 11 -55 14 -4 4 -10 119 -14 255 l-7 249 34
-7 c18 -3 40 -9 49 -11z"/>
<path d="M2434 1058 l-51 -31 -22 -234 c-13 -129 -20 -237 -17 -240 3 -3 29
14 58 39 l53 46 21 218 c12 121 19 222 15 226 -3 4 -29 -7 -57 -24z m22 -190
c-22 -226 -22 -222 -59 -251 l-33 -25 18 177 c9 97 17 191 17 209 1 25 8 36
34 52 17 11 33 15 35 10 2 -5 -4 -83 -12 -172z"/>
<path d="M1477 794 c-4 -147 -5 -270 -2 -272 11 -11 140 -29 146 -20 4 5 9
105 13 221 4 117 9 235 12 263 7 59 7 59 -104 70 l-59 7 -6 -269z m137 225
c10 -9 -5 -484 -16 -494 -3 -4 -26 -3 -50 2 l-43 9 -3 252 -2 253 52 -7 c29
-4 57 -10 62 -15z"/>
<path d="M1727 1023 c-8 -12 -30 -534 -23 -540 6 -7 148 -35 152 -30 6 6 36
529 31 541 -3 8 -30 16 -64 20 -32 4 -65 9 -75 12 -9 3 -19 1 -21 -3z m135
-41 c7 -7 -20 -493 -27 -500 -2 -2 -27 0 -57 5 l-53 9 1 54 c1 30 5 144 9 254
l7 198 57 -7 c31 -4 59 -10 63 -13z"/>
<path d="M1966 948 c-3 -23 -10 -133 -16 -243 -6 -110 -12 -216 -13 -235 l-2
-34 70 -12 c39 -7 73 -9 76 -6 3 4 23 126 43 271 28 199 34 266 25 271 -6 4
-35 11 -63 14 -28 4 -65 9 -83 12 -31 6 -32 5 -37 -38z m158 -4 c9 -4 4 -63
-23 -255 l-36 -251 -50 7 c-27 3 -51 8 -54 10 -4 5 17 387 25 459 l6 48 60 -6
c33 -4 65 -9 72 -12z"/>
</g>
</svg>
