<?xml version="1.0" standalone="no"?>
<!DOCTYPE svg PUBLIC "-//W3C//DTD SVG 20010904//EN"
 "http://www.w3.org/TR/2001/REC-SVG-20010904/DTD/svg10.dtd">
<svg version="1.0" xmlns="http://www.w3.org/2000/svg"
 width="376.000000pt" height="323.000000pt" viewBox="0 0 376.000000 323.000000"
 preserveAspectRatio="xMidYMid meet">

<g transform="translate(0.000000,323.000000) scale(0.100000,-0.100000)"
fill="#000000" stroke="none">
<path d="M2180 2882 c-52 -23 -90 -75 -90 -122 0 -14 -11 -46 -24 -72 l-23
-46 -30 29 c-34 35 -85 46 -128 28 -16 -7 -55 -11 -87 -10 -39 2 -70 -3 -102
-18 -55 -24 -155 -116 -201 -185 l-33 -48 -17 31 c-49 95 -209 95 -263 1 -15
-26 -22 -30 -63 -30 -80 0 -159 -74 -159 -150 0 -26 -7 -43 -26 -61 -39 -36
-54 -72 -54 -128 0 -39 -4 -53 -19 -60 -27 -15 -54 -78 -48 -115 3 -17 24 -62
46 -101 52 -88 88 -200 103 -320 16 -123 2 -251 -52 -495 -37 -165 -42 -203
-47 -355 -4 -133 -2 -173 9 -186 10 -12 123 -29 513 -78 l499 -62 141 95 c230
156 345 244 345 264 0 10 -16 142 -35 294 -45 360 -58 580 -49 850 l7 217 -27
54 c-24 51 -25 57 -12 93 7 21 19 73 26 114 8 47 19 83 32 97 11 12 20 36 21
56 1 27 6 36 30 47 73 32 88 138 28 192 -23 20 -31 37 -31 60 0 84 -105 153
-180 120z m96 -28 c41 -19 64 -59 64 -107 0 -26 6 -39 25 -51 36 -24 49 -62
36 -107 -11 -37 -47 -69 -76 -69 -11 0 -15 -11 -15 -41 0 -29 -7 -50 -25 -71
-16 -19 -25 -42 -25 -65 0 -39 -27 -153 -40 -166 -4 -5 -17 -4 -28 2 -20 11
-20 11 -1 61 10 27 22 74 25 105 6 45 4 55 -8 55 -9 0 -28 10 -43 21 -27 22
-31 55 -10 102 5 12 3 17 -10 17 -26 0 -75 55 -75 85 0 28 16 66 33 77 6 3 11
27 12 52 0 33 7 52 25 72 43 46 81 54 136 28z m-261 -220 c22 -26 55 -63 74
-83 29 -30 34 -42 32 -74 -2 -29 3 -45 19 -62 18 -20 20 -26 10 -45 -9 -17 -9
-36 0 -82 6 -32 8 -68 5 -79 -8 -26 -41 -21 -37 5 2 11 1 34 -3 53 -5 28 -10
33 -34 33 -35 0 -79 33 -83 63 -3 19 -8 22 -39 19 -52 -5 -93 32 -93 84 -1 21
-9 50 -18 64 -24 33 -23 82 3 114 48 61 106 57 164 -10z m-191 19 c-16 -37
-16 -103 0 -128 9 -13 16 -41 16 -61 0 -51 53 -104 104 -104 24 0 36 -5 36
-14 0 -7 7 -19 15 -26 11 -9 15 -34 15 -95 0 -77 -2 -87 -35 -141 -46 -77 -63
-132 -82 -281 l-17 -123 -155 0 c-86 0 -193 3 -237 6 l-81 7 7 31 c4 18 13 45
21 62 15 29 16 29 89 27 41 -2 107 -10 146 -19 39 -10 83 -14 98 -10 54 14 60
93 8 120 -21 11 -162 46 -184 46 -2 0 -3 20 -3 45 l0 45 40 0 c22 0 74 -8 116
-18 85 -21 113 -16 130 22 16 35 4 73 -29 90 -36 19 -169 46 -224 46 -60 0
-86 9 -94 32 -9 28 -64 88 -81 88 -11 0 -13 5 -8 18 4 9 14 34 22 55 34 95
162 239 245 277 24 11 63 20 87 20 37 0 42 -2 35 -17z m-440 -152 c58 -39 71
-98 35 -166 -12 -21 -17 -41 -13 -42 65 -23 99 -69 99 -132 0 -37 6 -54 28
-80 22 -26 27 -43 27 -83 0 -45 -4 -54 -36 -83 -20 -18 -53 -49 -73 -67 -28
-26 -43 -52 -57 -97 l-18 -62 -36 5 c-19 3 -74 10 -122 17 -48 6 -92 16 -97
23 -8 10 -31 151 -31 192 0 6 24 23 53 38 61 31 87 51 112 89 27 43 8 45 -26
4 -27 -32 -104 -87 -122 -87 -13 0 -7 76 13 159 20 80 19 112 0 81 -22 -35
-44 -171 -44 -277 -1 -76 -5 -113 -12 -113 -20 0 -61 39 -74 70 -12 29 -30 41
-30 20 0 -38 65 -110 100 -110 17 0 37 -46 25 -58 -3 -3 -40 4 -83 16 -84 25
-115 50 -153 129 -26 54 -19 92 26 131 30 27 32 33 28 74 -6 51 12 95 52 126
19 15 25 29 25 58 0 48 29 97 72 125 25 15 44 19 80 15 44 -5 47 -3 59 25 28
69 131 101 193 60z m811 -163 c-9 -56 -21 -67 -29 -28 -6 33 7 70 25 70 7 0 8
-15 4 -42z m-105 -107 c0 -37 -4 -50 -17 -55 -10 -3 -24 -9 -30 -12 -10 -4
-13 10 -13 55 l0 61 30 0 c29 0 30 -1 30 -49z m108 -81 c46 -28 74 -94 70
-165 l-3 -56 -77 -33 c-79 -34 -117 -60 -225 -154 l-63 -54 6 48 c3 27 12 90
20 139 37 224 157 345 272 275z m-481 -5 c128 -24 159 -46 133 -95 -13 -24
-33 -25 -109 -6 -31 8 -82 17 -113 21 -48 5 -61 11 -78 35 -34 48 -27 60 34
60 30 0 90 -7 133 -15z m-37 -236 c92 -20 118 -39 105 -80 -9 -27 -43 -32
-108 -15 -32 8 -92 18 -132 22 l-74 7 37 27 c20 15 43 34 50 43 14 17 28 16
122 -4z m582 -176 c-5 -218 10 -426 53 -768 19 -152 35 -278 35 -280 0 -5
-281 -206 -384 -275 l-79 -53 6 64 c33 316 48 900 27 984 -4 17 -8 28 -10 25
-1 -3 -3 -149 -4 -325 -2 -269 -25 -695 -40 -740 -6 -17 -965 107 -976 125 -5
8 -10 67 -10 130 1 120 15 216 70 470 53 245 52 420 -4 594 l-23 74 46 -15
c175 -55 417 -83 734 -83 l199 0 67 58 c36 32 85 72 107 90 40 31 159 92 179
92 6 0 9 -60 7 -167z"/>
<path d="M1506 2368 c-9 -12 -16 -34 -16 -49 0 -45 25 -57 149 -68 62 -6 140
-18 173 -27 69 -20 104 -10 114 31 11 43 -4 75 -41 90 -51 22 -199 45 -286 45
-69 0 -80 -2 -93 -22z m219 -8 c153 -22 197 -46 180 -99 -8 -28 -29 -29 -113
-9 -41 9 -117 20 -169 24 -85 6 -96 9 -105 29 -7 16 -7 29 1 44 10 18 21 21
74 21 34 0 94 -5 132 -10z"/>
</g>
</svg>
