<?xml version="1.0" standalone="no"?>
<!DOCTYPE svg PUBLIC "-//W3C//DTD SVG 20010904//EN"
 "http://www.w3.org/TR/2001/REC-SVG-20010904/DTD/svg10.dtd">
<svg version="1.0" xmlns="http://www.w3.org/2000/svg"
 width="343.000000pt" height="330.000000pt" viewBox="0 0 343.000000 330.000000"
 preserveAspectRatio="xMidYMid meet">

<g transform="translate(0.000000,330.000000) scale(0.100000,-0.100000)"
fill="#000000" stroke="none">
<path d="M2175 2887 c-104 -35 -124 -53 -793 -720 -365 -364 -667 -669 -672
-677 -10 -19 -250 -1044 -250 -1070 0 -20 44 -60 67 -60 8 0 247 54 532 121
l516 121 678 676 c768 767 742 736 742 882 0 134 -5 142 -289 428 -281 283
-307 302 -424 308 -39 2 -84 -2 -107 -9z m160 -146 c55 -26 489 -463 510 -513
36 -88 11 -150 -112 -270 l-88 -88 -340 340 -340 340 80 81 c120 122 200 152
290 110z m-631 -1032 l-451 -451 -30 64 c-37 79 -111 154 -190 192 -32 16 -60
30 -63 33 -2 2 198 206 445 453 l450 450 145 -145 145 -145 -451 -451z m390
-390 l-451 -450 -32 65 c-42 86 -114 156 -197 192 l-64 29 452 452 453 453
145 -145 145 -145 -451 -451z m-1128 72 c51 -23 104 -75 130 -127 14 -29 19
-60 19 -125 0 -120 10 -132 115 -123 64 6 84 3 121 -13 88 -40 149 -125 157
-219 l4 -52 -138 -32 c-77 -18 -191 -45 -254 -60 l-115 -27 -42 61 c-49 73
-129 152 -199 198 l-51 33 28 115 c14 63 41 177 59 253 l32 137 46 0 c26 0 65
-9 88 -19z m-166 -737 c45 -49 58 -69 49 -74 -23 -12 -210 -52 -216 -46 -3 3
5 47 17 98 34 144 27 131 59 109 15 -11 56 -50 91 -87z"/>
</g>
</svg>
