<?xml version="1.0" standalone="no"?>
<!DOCTYPE svg PUBLIC "-//W3C//DTD SVG 20010904//EN"
 "http://www.w3.org/TR/2001/REC-SVG-20010904/DTD/svg10.dtd">
<svg version="1.0" xmlns="http://www.w3.org/2000/svg"
 width="329.000000pt" height="314.000000pt" viewBox="0 0 329.000000 314.000000"
 preserveAspectRatio="xMidYMid meet">

<g transform="translate(0.000000,314.000000) scale(0.100000,-0.100000)"
fill="#000000" stroke="none">
<path d="M1160 2730 l0 -160 -395 0 -395 0 0 -80 0 -80 100 0 100 0 0 -27 c0
-119 101 -1866 109 -1886 27 -72 92 -125 183 -152 49 -14 144 -15 814 -13 748
3 760 3 805 24 60 28 116 78 140 126 18 35 24 121 69 956 28 504 50 929 50
945 l0 27 95 0 95 0 0 80 0 80 -390 0 -390 0 0 160 0 160 -495 0 -495 0 0
-160z m790 -80 l0 -80 -295 0 -295 0 0 80 0 80 295 0 295 0 0 -80z m590 -297
c-1 -32 -22 -454 -49 -937 l-47 -879 -28 -23 -27 -24 -727 0 c-703 0 -728 1
-759 20 -23 13 -33 29 -37 52 -5 35 -97 1759 -96 1816 l0 32 885 0 885 0 0
-57z"/>
<path d="M1160 1450 l0 -640 100 0 100 0 0 640 0 640 -100 0 -100 0 0 -640z"/>
<path d="M1560 1450 l0 -640 95 0 95 0 0 640 0 640 -95 0 -95 0 0 -640z"/>
<path d="M1950 1450 l0 -640 100 0 100 0 0 640 0 640 -100 0 -100 0 0 -640z"/>
</g>
</svg>
